# xmcd
#
# Track frame offsets:
#	150
#	15702
#	33862
#	46610
#	62607
#	74392
#	85847
#	98917
#	109940
#	122970
#	137200
#	149542
#
# Disc length: 2405 seconds
#
# Revision: 0
# Processed by: cddbd v1.5PL3 Copyright (c) Steve Scherf et al.
# Submitted via: dBpowerAMP V4.0
#
DISCID=a609630c
DTITLE=Wayne Benson - An Instrumental Anthology
DYEAR=2003
DGENRE=Bluegrass
TTITLE0=Tucker
TTITLE1=Tillery Cove
TTITLE2=Blountville
TTITLE3=Anxious Molly
TTITLE4=Carpenter John
TTITLE5=Walter Hill
TTITLE6=Ole Rowdy
TTITLE7=Red Tommy
TTITLE8=Buck and Chloe
TTITLE9=The Galt House Suite
TTITLE10=Chattanooga Breakdown
TTITLE11=Spagnum Peat
EXTD=
EXTT0=
EXTT1=
EXTT2=
EXTT3=
EXTT4=
EXTT5=
EXTT6=
EXTT7=
EXTT8=
EXTT9=
EXTT10=
EXTT11=
PLAYORDER=
